<svg width="20" height="20" viewBox="0 0 20 20" fill="none" xmlns="http://www.w3.org/2000/svg">
<path d="M11.6704 3.33325H8.32871C5.17871 3.33325 3.60371 3.33325 2.62454 4.30992C1.94954 4.98159 1.74037 5.93575 1.67454 7.49075C1.66204 7.79909 1.65537 7.95409 1.71287 8.05659C1.77121 8.15909 2.00037 8.28825 2.46037 8.54492C2.71949 8.68937 2.93532 8.9004 3.08558 9.15619C3.23583 9.41198 3.31505 9.70326 3.31505 9.99992C3.31505 10.2966 3.23583 10.5879 3.08558 10.8436C2.93532 11.0994 2.71949 11.3105 2.46037 11.4549C2.00037 11.7124 1.77037 11.8408 1.71287 11.9433C1.65537 12.0458 1.66204 12.1999 1.67537 12.5083C1.74037 14.0641 1.95037 15.0183 2.62454 15.6899C3.60287 16.6666 5.17787 16.6666 8.32871 16.6666H11.6704C14.8204 16.6666 16.3954 16.6666 17.3745 15.6899C18.0495 15.0183 18.2587 14.0641 18.3245 12.5091C18.337 12.2008 18.3437 12.0458 18.2862 11.9433C18.2279 11.8408 17.9987 11.7124 17.5387 11.4549C17.2796 11.3105 17.0638 11.0994 16.9135 10.8436C16.7633 10.5879 16.684 10.2966 16.684 9.99992C16.684 9.70326 16.7633 9.41198 16.9135 9.15619C17.0638 8.9004 17.2796 8.68937 17.5387 8.54492C17.9987 8.28825 18.2287 8.15909 18.2862 8.05659C18.3437 7.95409 18.337 7.79992 18.3237 7.49075C18.2587 5.93575 18.0487 4.98242 17.3745 4.30992C16.3962 3.33325 14.8212 3.33325 11.6704 3.33325Z" stroke="white" stroke-width="1.5"/>
<path d="M7.5 12.5L12.5 7.5" stroke="white" stroke-width="1.5" stroke-linecap="round"/>
<path d="M12.9154 12.0833C12.9154 12.3043 12.8276 12.5162 12.6713 12.6725C12.515 12.8288 12.303 12.9166 12.082 12.9166C11.861 12.9166 11.6491 12.8288 11.4928 12.6725C11.3365 12.5162 11.2487 12.3043 11.2487 12.0833C11.2487 11.8622 11.3365 11.6503 11.4928 11.494C11.6491 11.3377 11.861 11.2499 12.082 11.2499C12.303 11.2499 12.515 11.3377 12.6713 11.494C12.8276 11.6503 12.9154 11.8622 12.9154 12.0833ZM8.7487 7.91659C8.7487 8.1376 8.6609 8.34956 8.50462 8.50584C8.34834 8.66212 8.13638 8.74992 7.91536 8.74992C7.69435 8.74992 7.48239 8.66212 7.32611 8.50584C7.16983 8.34956 7.08203 8.1376 7.08203 7.91659C7.08203 7.69557 7.16983 7.48361 7.32611 7.32733C7.48239 7.17105 7.69435 7.08325 7.91536 7.08325C8.13638 7.08325 8.34834 7.17105 8.50462 7.32733C8.6609 7.48361 8.7487 7.69557 8.7487 7.91659Z" fill="white"/>
</svg>
