<svg width="10" height="12" viewBox="0 0 10 12" fill="none" xmlns="http://www.w3.org/2000/svg">
<path d="M5 0.125C6.29293 0.125 7.53291 0.638615 8.44715 1.55285C9.36139 2.46709 9.875 3.70707 9.875 5C9.875 7.06 8.4275 9.305 5.57 11.759C5.41111 11.8955 5.20853 11.9705 4.99906 11.9703C4.7896 11.9701 4.58715 11.8948 4.4285 11.758L4.2395 11.594C1.5085 9.204 0.125 7.014 0.125 5C0.125 3.70707 0.638615 2.46709 1.55285 1.55285C2.46709 0.638615 3.70707 0.125 5 0.125ZM5 3.125C4.50272 3.125 4.02581 3.32254 3.67417 3.67417C3.32254 4.02581 3.125 4.50272 3.125 5C3.125 5.49728 3.32254 5.97419 3.67417 6.32582C4.02581 6.67746 4.50272 6.875 5 6.875C5.49728 6.875 5.9742 6.67746 6.32583 6.32582C6.67746 5.97419 6.875 5.49728 6.875 5C6.875 4.50272 6.67746 4.02581 6.32583 3.67417C5.9742 3.32254 5.49728 3.125 5 3.125Z" fill="#213F74" fill-opacity="0.8"/>
</svg>
