<svg width="65" height="60" viewBox="0 0 65 60" fill="none" xmlns="http://www.w3.org/2000/svg">
<path d="M0 0H65V50C65 55.5228 60.5228 60 55 60H10C4.47715 60 0 55.5228 0 50V0Z" fill="#C6BCB2"/>
<path fill-rule="evenodd" clip-rule="evenodd" d="M53.8949 16.5424C56.5837 18.3016 48.7298 30.7926 45.8964 34.4566C46.3017 33.6123 46.8862 32.4771 47.5346 31.2179L47.5349 31.2173C49.1375 28.105 51.13 24.2355 51.7699 22.1276C52.7439 18.9191 51.7699 16.5424 47.7558 17.6713C44.5148 18.5828 41.056 20.168 34.0433 30.9219C37.3118 35.7877 38.218 39.4033 37.4847 42.983C37.2049 44.3488 36.4524 45.5839 35.4467 46.4441C38.3149 46.5904 44.8016 46.4533 49.8806 44.7953C48.3064 46.5877 42.6258 49.6912 32.4963 47.7661C28.8955 48.8851 20.1473 49.8576 13.9609 44.7953C15.804 45.659 21.4285 47.1864 29.2764 46.4494C28.4206 45.6967 27.6202 44.5682 26.9479 42.983C25.5869 39.7744 27.9 34.9834 30.7601 30.7885C24.2098 20.8419 16.6438 15.016 13.0759 18.1763C10.8623 20.1371 16.0962 29.9873 18.8608 34.4567C14.5122 29.3567 8.55594 19.1768 10.7146 16.5424C13.076 13.6606 22.7669 16.8528 30.6372 26.4056C31.2542 27.1546 31.8266 27.8758 32.356 28.572C34.8287 25.3042 37.2862 22.7309 37.8979 22.1276C39.3736 20.6719 48.5823 13.0665 53.8949 16.5424ZM32.5852 33.7139C32.5342 33.6277 32.4831 33.5416 32.4319 33.4558C25.0806 45.3678 30.9408 45.9539 32.172 45.9539C33.4116 45.9539 39.5212 45.4488 32.5852 33.7139Z" fill="white"/>
</svg>
