<svg width="26" height="26" viewBox="0 0 26 26" fill="none" xmlns="http://www.w3.org/2000/svg">
<path d="M9.75001 23.8333C10.3483 23.8333 10.8333 23.3483 10.8333 22.75C10.8333 22.1517 10.3483 21.6666 9.75001 21.6666C9.1517 21.6666 8.66667 22.1517 8.66667 22.75C8.66667 23.3483 9.1517 23.8333 9.75001 23.8333Z" fill="#213F74" stroke="#213F74" stroke-width="2" stroke-linecap="round" stroke-linejoin="round"/>
<path d="M21.6667 23.8333C22.265 23.8333 22.75 23.3483 22.75 22.75C22.75 22.1517 22.265 21.6666 21.6667 21.6666C21.0684 21.6666 20.5833 22.1517 20.5833 22.75C20.5833 23.3483 21.0684 23.8333 21.6667 23.8333Z" fill="#213F74" stroke="#213F74" stroke-width="2" stroke-linecap="round" stroke-linejoin="round"/>
<path d="M1.08334 1.08337H5.41668L8.32001 15.5892C8.41908 16.088 8.69041 16.536 9.08652 16.8549C9.48263 17.1737 9.97827 17.3431 10.4867 17.3334H21.0167C21.5251 17.3431 22.0207 17.1737 22.4168 16.8549C22.8129 16.536 23.0843 16.088 23.1833 15.5892L24.9167 6.50004H6.50001" stroke="#213F74" stroke-width="2" stroke-linecap="round" stroke-linejoin="round"/>
</svg>
