<svg width="20" height="20" viewBox="0 0 20 20" fill="none" xmlns="http://www.w3.org/2000/svg">
<path d="M10.0011 0.90918C15.022 0.90918 19.092 4.97918 19.092 10.0001C19.092 15.021 15.022 19.091 10.0011 19.091C8.39451 19.0936 6.81622 18.6684 5.42835 17.8592L0.913805 19.091L2.1429 14.5746C1.33298 13.1863 0.907485 11.6074 0.910169 10.0001C0.910169 4.97918 4.98017 0.90918 10.0011 0.90918ZM6.9029 5.72736L6.72108 5.73463C6.60337 5.7418 6.48833 5.77273 6.3829 5.82554C6.28428 5.88139 6.19426 5.9512 6.11562 6.03282C6.00653 6.13554 5.94471 6.22463 5.87835 6.311C5.5421 6.74818 5.36105 7.28492 5.36381 7.83645C5.36562 8.28191 5.48199 8.71554 5.66381 9.121C6.03562 9.941 6.64744 10.8092 7.45471 11.6137C7.64926 11.8074 7.84017 12.0019 8.04562 12.1828C9.04871 13.066 10.244 13.7029 11.5365 14.0428L12.0529 14.1219C12.2211 14.131 12.3893 14.1183 12.5584 14.1101C12.8231 14.0964 13.0816 14.0247 13.3156 13.9001C13.4347 13.8388 13.5509 13.772 13.6638 13.7001C13.6638 13.7001 13.7029 13.6746 13.7774 13.6183C13.9002 13.5274 13.9756 13.4628 14.0774 13.3565C14.1529 13.2783 14.2184 13.1865 14.2683 13.0819C14.3393 12.9337 14.4102 12.651 14.4393 12.4155C14.4611 12.2355 14.4547 12.1374 14.452 12.0765C14.4483 11.9792 14.3674 11.8783 14.2793 11.8355L13.7502 11.5983C13.7502 11.5983 12.9593 11.2537 12.4756 11.0337C12.425 11.0116 12.3708 10.999 12.3156 10.9965C12.2534 10.9901 12.1906 10.9971 12.1313 11.017C12.072 11.0369 12.0177 11.0693 11.972 11.1119C11.9674 11.1101 11.9065 11.1619 11.2493 11.9583C11.2115 12.009 11.1596 12.0473 11.1 12.0683C11.0404 12.0894 10.9759 12.0922 10.9147 12.0765C10.8555 12.0606 10.7975 12.0405 10.7411 12.0165C10.6284 11.9692 10.5893 11.951 10.512 11.9183C9.99023 11.6906 9.50716 11.383 9.08017 11.0065C8.96562 10.9065 8.85926 10.7974 8.75017 10.6919C8.39252 10.3494 8.08083 9.96191 7.8229 9.53918L7.76926 9.45282C7.73073 9.39478 7.69959 9.33218 7.67653 9.26645C7.64199 9.13282 7.73199 9.02554 7.73199 9.02554C7.73199 9.02554 7.9529 8.78372 8.05562 8.65282C8.15562 8.52554 8.24017 8.40191 8.29471 8.31373C8.40199 8.141 8.43562 7.96373 8.37926 7.82645C8.12471 7.20463 7.86108 6.58554 7.59017 5.971C7.53653 5.84918 7.37744 5.76191 7.2329 5.74463C7.18381 5.73918 7.13471 5.73373 7.08562 5.73009C6.96354 5.72402 6.8412 5.72524 6.71926 5.73373L6.90199 5.72645L6.9029 5.72736Z" fill="#00B649"/>
</svg>
